<svg xmlns="http://www.w3.org/2000/svg" viewBox="0 0 22.72 22.72"><defs><style>.cls-1{fill:#fff;}</style></defs><g id="Capa_2" data-name="Capa 2"><g id="Capa_1-2" data-name="Capa 1"><path class="cls-1" d="M11.36,0A11.36,11.36,0,1,0,22.72,11.36,11.37,11.37,0,0,0,11.36,0Zm6.47,14.28a3.54,3.54,0,0,1-3.57,3.55c-1.94.08-3.88.09-5.81,0a3.54,3.54,0,0,1-3.56-3.61c-.08-1.9-.08-3.81,0-5.72A3.54,3.54,0,0,1,8.53,4.89c.94,0,1.89,0,2.83,0A20.44,20.44,0,0,1,14.68,5a3.44,3.44,0,0,1,3.14,3.48Q18,11.36,17.83,14.28Z"/><path class="cls-1" d="M16.66,8.66a2.32,2.32,0,0,0-2.35-2.57,39.26,39.26,0,0,0-5.94,0A2.17,2.17,0,0,0,6.1,8.34a35.71,35.71,0,0,0,0,6,2.16,2.16,0,0,0,2.27,2.25,37.19,37.19,0,0,0,6,0,2.24,2.24,0,0,0,2.3-2.29,22.65,22.65,0,0,0,0-3C16.67,10.46,16.7,9.56,16.66,8.66Zm-5.32,6.05a3.36,3.36,0,1,1,3.37-3.33A3.38,3.38,0,0,1,11.34,14.71Zm3.47-6.05a.8.8,0,0,1-.75-.78.78.78,0,1,1,1.56,0A.79.79,0,0,1,14.81,8.66Z"/><path class="cls-1" d="M11.36,9.19a2.17,2.17,0,1,0,2.17,2.17A2.16,2.16,0,0,0,11.36,9.19Z"/></g></g></svg>