<svg xmlns="http://www.w3.org/2000/svg" viewBox="0 0 22.61 22.61"><defs><style>.cls-1{fill:#fff;}</style></defs><g id="Capa_2" data-name="Capa 2"><g id="Capa_1-2" data-name="Capa 1"><path class="cls-1" d="M11.33,0A11.31,11.31,0,1,0,22.61,11.33,11.31,11.31,0,0,0,11.33,0ZM10.08,1.66c.55-.32.56-.3.56.31,0,1.2,0,2.41,0,3.61,0,.29-.08.37-.37.36-1,0-2-.11-3.08-.23C7.83,4.1,8.51,2.56,10.08,1.66Zm.57,8.69c0,.25-.1.3-.32.29H6.62c-.2,0-.28,0-.27-.27a19.24,19.24,0,0,1,.42-3.1c0-.2.11-.25.32-.23a29.4,29.4,0,0,0,3.25.22c.24,0,.31.08.3.31C10.63,8.5,10.63,9.42,10.65,10.35ZM7.2,2.21c.07,0,.14-.12.24,0s0,.18-.08.24A11.16,11.16,0,0,0,6,5.22c-.07.24-.18.32-.43.26-.65-.14-1.3-.26-2-.47A10.16,10.16,0,0,1,7.2,2.21ZM1.37,10.37A10,10,0,0,1,2.6,6.42c.08-.15.13-.28.36-.2a14.7,14.7,0,0,0,2.27.54c.24,0,.27.13.22.35A16.25,16.25,0,0,0,5,10.37c0,.22-.08.28-.29.28-.53,0-1,0-1.58,0H1.63C1.42,10.65,1.35,10.6,1.37,10.37Zm1.56,5.88a.27.27,0,0,1-.38-.15,10.05,10.05,0,0,1-1.18-3.89c0-.22.06-.25.24-.25H3.2c.5,0,1,0,1.5,0,.28,0,.34.09.34.35a16.66,16.66,0,0,0,.4,3.06c0,.23,0,.33-.24.37A16.17,16.17,0,0,0,2.93,16.25Zm.55,1.24A18.54,18.54,0,0,1,5.7,17c.21,0,.2.13.24.24a11.59,11.59,0,0,0,1.82,3.4A10,10,0,0,1,3.48,17.49ZM10.32,21a3.77,3.77,0,0,1-1.18-.83A8.82,8.82,0,0,1,7.21,16.8c1.07-.11,2.1-.19,3.12-.21.26,0,.32.08.32.32,0,1.29,0,2.59,0,3.88C10.65,21.09,10.54,21.1,10.32,21Zm.33-6.06c0,.24-.05.34-.32.34a26.3,26.3,0,0,0-3.2.19c-.25,0-.34-.05-.38-.28a19,19,0,0,1-.39-2.92c0-.26.07-.31.31-.31.61,0,1.21,0,1.81,0s1.21,0,1.81,0c.25,0,.37,0,.36.34C10.63,13.18,10.64,14.06,10.65,14.94ZM15.13,2.09a10.09,10.09,0,0,1,4,3L17,5.53c-.16,0-.27,0-.33-.16a11.78,11.78,0,0,0-1.57-3.13S15.12,2.19,15.13,2.09Zm-2.86-.57a3.53,3.53,0,0,1,.89.56,8.3,8.3,0,0,1,2.25,3.65,31.87,31.87,0,0,1-3.2.22C12,6,12,5.82,12,5.64,12,4.33,12,3,12,1.72,12,1.43,12.07,1.44,12.27,1.52ZM12,7.6c0-.25.07-.33.32-.34a24.7,24.7,0,0,0,3.21-.2c.25,0,.32.07.37.29a24.08,24.08,0,0,1,.39,2.92c0,.33-.1.39-.39.38-.59,0-1.18,0-1.76,0H12.3c-.24,0-.34-.05-.34-.31C12,9.42,12,8.51,12,7.6Zm0,6c0-.44,0-.88,0-1.32,0-.22,0-.31.29-.31H16c.24,0,.26.1.25.29a18.33,18.33,0,0,1-.41,3.05c-.05.19-.11.23-.3.21a25.24,25.24,0,0,0-3.25-.23c-.24,0-.34-.06-.32-.32C12,14.5,12,14.05,12,13.59Zm.86,7.11a2.11,2.11,0,0,1-.86.38V16.82c0-.16,0-.23.22-.22,1,0,2,.11,3,.19.15,0,.22.05.16.21A7.52,7.52,0,0,1,12.83,20.7Zm2.06-.12a10.77,10.77,0,0,0,1.74-3.27c.08-.24.19-.31.44-.25l2,.43A8.84,8.84,0,0,1,14.89,20.58Zm6.35-8.31a10.18,10.18,0,0,1-1.16,3.8c-.13.23-.23.31-.51.22a13.87,13.87,0,0,0-2.14-.5c-.25,0-.33-.12-.27-.4a15.4,15.4,0,0,0,.41-3.09c0-.29.1-.35.36-.34.5,0,1,0,1.5,0s1,0,1.54,0C21.2,12,21.26,12,21.24,12.27ZM20.05,6.49a10,10,0,0,1,1.19,3.88c0,.24-.06.27-.26.27H17.9c-.21,0-.32,0-.33-.28a16,16,0,0,0-.41-3.22c-.05-.25,0-.31.25-.34a15,15,0,0,0,2.19-.49C19.82,6.25,19.94,6.27,20.05,6.49Z"/></g></g></svg>